<?xml version="1.0" standalone="no"?><!DOCTYPE svg PUBLIC "-//W3C//DTD SVG 1.1//EN" "http://www.w3.org/Graphics/SVG/1.1/DTD/svg11.dtd"><svg t="1496376244172" class="icon" style="" viewBox="0 0 1024 1024" version="1.1" xmlns="http://www.w3.org/2000/svg" p-id="6219" xmlns:xlink="http://www.w3.org/1999/xlink" width="200" height="200"><defs><style type="text/css"></style></defs><path d="M186.110638 371.694533C157.038298 371.694533 136.817021 376.05198 124.93617 379.728575 118.229787 381.873256 114.451064 383.473256 113.361702 383.983894 86.059574 396.886022 69.446809 422.486022 69.446809 451.047724 69.446809 472.903043 78.502128 493.022192 94.944681 507.728575 98.314894 510.962618 105.87234 518.009426 126.365957 534.690277 178.178723 576.800916 199.285106 594.843469 222.161702 618.843469 267.846809 666.707299 264.476596 717.192405 255.285106 739.490277L230.26383 816.766873C223.217021 838.486022 219.302128 859.52432 218.995745 877.532831 218.92766 884.375384 219.33617 888.46049 219.438298 889.617937 223.319149 919.711554 242.485106 943.371129 269.685106 952.222192 290.587234 958.962618 312.510638 956.545597 331.47234 945.515809 335.625532 943.303043 344.646809 938.264746 366.876596 923.898788L376.408511 917.737086C425.87234 885.703043 448.442553 871.064746 477.514894 858.332831 503.761702 846.86049 543.387234 829.532831 587.06383 854.315809L590.26383 856.392405 667.165957 912.290277C690.519149 929.277511 709.582979 937.686022 721.46383 941.771129 728.068085 943.983894 732.051064 944.903043 733.208511 945.107299 762.689362 950.58815 791.319149 939.79666 808.170213 916.647724 820.868085 899.217937 825.46383 877.090277 820.868085 855.915809 820.017021 850.877511 818.008511 840.800916 811.268085 815.507299L808.442553 804.920065C793.191489 747.728575 786.246809 721.617937 783.114894 689.958363 781.106383 669.532831 775.72766 615.269001 814.502128 583.405171 822.740426 576.664746 876.8 537.856235 893.208511 526.111554 916.425532 509.26049 930.280851 493.737086 937.804255 483.762618 941.991489 478.077511 944.102128 474.571129 944.646809 473.515809 959.182979 447.030703 957.548936 416.59666 940.765957 393.481767 928.102128 376.05198 908.459574 364.817937 886.876596 362.639214L885.106383 362.434958C882.008511 361.958363 871.761702 360.698788 845.514894 359.303043L819.06383 357.907299C769.940426 355.354107 745.361702 354.094533 716.66383 347.115809 655.659574 332.273256 627.506383 290.673256 620.493617 268.443469L595.710638 192.222192C586.791489 164.613682 576.340426 146.673256 569.157447 136.46049 565.07234 130.741341 562.382979 127.677511 561.531915 126.826448 540.868085 104.800916 511.353191 96.903043 484.187234 105.754107 463.72766 112.426448 446.944681 127.643469 438.195745 147.52432 436.017021 151.915809 431.72766 161.277511 422.229787 185.822192L418.008511 196.715809C396.868085 251.52432 387.234043 276.545597 371.234043 303.881767 356.8 328.59666 334.910638 365.975384 284.868085 371.490277L281.157447 371.694533 186.110638 371.694533ZM293.276596 1024.017937C278.331915 1024.017937 263.251064 1021.703043 248.680851 1016.971129 196.187234 999.915809 159.182979 954.775384 152.068085 899.183894 152.034043 899.183894 150.774468 891.490277 150.910638 876.647724 151.353191 851.320065 156.255319 824.18815 165.514894 795.728575L191.421277 715.966873C192.612766 712.426448 198.161702 692.307299 172.868085 665.856235 153.770213 645.805171 136.204255 630.45198 83.438298 587.52432 59.710638 568.256235 51.029787 559.983894 48.408511 557.430703 18.92766 531.081767 1.361702 491.932831 1.361702 451.047724 1.361702 395.864746 32.851064 346.741341 83.574468 322.775384 83.506383 322.775384 90.382979 319.234958 104.646809 314.741341 128.578723 307.354107 155.914894 303.609426 186.110638 303.609426L279.012766 303.609426C290.757447 301.805171 297.974468 294.281767 312.476596 269.498788 325.719149 246.894533 334.12766 225.039214 354.451064 172.239214L358.706383 161.243469C369.225532 134.111554 374.468085 122.775384 376.680851 118.417937 392.476596 82.469001 424.238298 53.669001 463.148936 41.005171 515.710638 23.949852 572.221277 38.758363 610.621277 79.609426L610.621277 79.575384C610.655319 79.575384 616.068085 85.022192 624.680851 97.073256 639.217021 117.703043 651.2 142.58815 660.493617 171.183894L685.310638 247.677511C685.480851 248.086022 694.876596 271.745597 732.765957 280.937086 755.234043 286.417937 776.340426 287.507299 822.53617 289.92432L849.191489 291.320065C876.187234 292.749852 888.953191 294.179639 894.53617 294.99666 935.046809 299.320065 971.914894 320.59666 995.812766 353.447724 1028.255319 398.077511 1031.659574 456.392405 1004.697872 505.617937L1004.697872 505.583894C1004.731915 505.583894 1001.225532 512.494533 992.408511 524.443469 977.259574 544.59666 957.310638 563.694533 932.970213 581.362618 899.642553 605.226448 862.468085 632.154107 857.73617 636.034958 850.553191 641.92432 848.306383 657.379639 850.859574 683.286022 853.480851 709.39666 859.540426 732.239214 874.246809 787.38815L877.07234 798.009426C884.629787 826.434958 887.012766 838.622192 887.761702 843.354107 896.102128 881.583894 887.319149 923.558363 863.251064 956.681767 830.808511 1001.311554 776.544681 1022.58815 721.32766 1012.137086L721.32766 1012.137086C721.191489 1012.137086 713.531915 1010.911554 699.574468 1006.247724 675.710638 998.043469 651.404255 985.005171 627.131915 967.371129L552.034043 912.766873C541.378723 907.320065 531.165957 909.192405 504.782979 920.698788 480.817021 931.217937 461.106383 944.017937 413.446809 974.86049L403.846809 981.056235C378.110638 997.703043 367.557447 1003.422192 364.323404 1005.12432 342.978723 1017.549852 318.331915 1024.017937 293.276596 1024.017937L293.276596 1024.017937Z" p-id="6220"></path></svg>