<?xml version="1.0" standalone="no"?><!DOCTYPE svg PUBLIC "-//W3C//DTD SVG 1.1//EN" "http://www.w3.org/Graphics/SVG/1.1/DTD/svg11.dtd"><svg t="1496376268749" class="icon" style="" viewBox="0 0 1024 1024" version="1.1" xmlns="http://www.w3.org/2000/svg" p-id="6327" xmlns:xlink="http://www.w3.org/1999/xlink" width="200" height="200"><defs><style type="text/css"></style></defs><path d="M434.654807 863.352664c-1.294544 0-2.584995-0.014327-3.886703-0.041958-95.239583-2.063084-173.08315-81.187892-182.945225-91.627139-9.840584-9.249085-77.366683-75.937056-79.610901-165.79379-1.369249-54.786349 21.27658-105.904992 67.306077-151.934489l333.32319-333.322167c5.897597-6.174926 48.547975-48.478387 111.084193-49.851729 44.982605-0.977304 88.034138 18.755032 127.996162 58.682262 4.550861 4.485366 51.45328 52.259684 51.991565 115.416056 0.316217 37.040345-14.736316 71.035184-44.739046 101.036891l-320.821882 320.821882c-1.447024 1.448048-3.035272 2.746686-4.741205 3.877493-24.049873 15.948992-80.94331 34.700954-124.126856-8.482592-0.336684-0.335661-0.664158-0.679508-0.984468-1.031542-2.597276-2.850044-15.8661-18.257682-22.07889-41.730382-8.85407-33.448368 1.153321-66.753465 28.180135-93.780278l233.325005-233.325005c11.989631-11.989631 31.428264-11.989631 43.417895 0s11.989631 31.428264 0 43.417895l-233.325005 233.325005c-15.176359 15.176359-14.255339 27.045234-12.241376 34.65081 2.130626 8.048689 6.684557 14.264549 7.839925 15.750461 15.629705 14.712779 36.755852 5.220135 44.004277 1.227003l318.135575-318.136598c18.081665-18.080641 26.835446-36.650446 26.759717-56.768588-0.144293-38.372753-32.201921-71.038254-33.608011-72.449461-0.138153-0.130989-0.145316-0.141223-0.316217-0.312123-27.680737-27.680737-55.717602-41.431562-83.318517-40.802199-39.465697 0.866782-67.519958 30.31997-67.793194 30.617767-0.302913 0.331567-0.614013 0.655971-0.932277 0.974234l-333.613823 333.613823c-33.672482 33.672482-50.273352 69.667981-49.341075 106.983608 0.884179 35.373299 17.26912 66.878315 30.859279 87.076278 14.882656 22.120848 29.507426 35.595367 29.651719 35.725333 0.708162 0.64062 1.385623 1.312965 2.030337 2.017033 0.618107 0.668251 66.760629 71.313536 140.197627 72.754421 32.18043 0.648807 60.857916-12.09913 87.678011-38.919225l229.231584-229.231584c11.989631-11.990654 31.428264-11.990654 43.417895 0 11.989631 11.989631 11.989631 31.427241 0 43.416871l-229.231584 229.231584C525.642349 844.211827 482.33293 863.352664 434.654807 863.352664z" p-id="6328"></path></svg>